<svg width="56" height="56" viewBox="0 0 56 56" fill="none" xmlns="http://www.w3.org/2000/svg">
<g clip-path="url(#clip0_543_2600)">
<path d="M28 56C43.464 56 56 43.464 56 28C56 12.536 43.464 0 28 0C12.536 0 0 12.536 0 28C0 43.464 12.536 56 28 56Z" fill="black"/>
<path d="M14.725 14.8161C16.5609 18.3047 20.4599 26.7213 23.0424 35.722L23.1684 36.1649L23.7155 38.1087L19.828 39.2029L19.2809 37.2593C16.7949 28.4275 12.9201 20.0596 11.1569 16.7078L10.9931 16.3993L10.041 14.6262H14.624L14.725 14.8161Z" fill="white"/>
<path d="M26.9512 17.8982L31.1773 15.3079V14.6262H19.4527L19.3164 14.7626L21.4977 18.4436L26.9512 17.8982Z" fill="white" stroke="white" stroke-width="0.269231"/>
<path d="M21.9062 36.3034C23.8149 36.5758 27.6321 34.8038 28.9955 17.0803" stroke="white" stroke-width="4.03846" stroke-linecap="square"/>
<path d="M26.9644 18.0324C27.0384 18.025 27.0926 17.959 27.085 17.885C27.0778 17.8111 27.0118 17.7571 26.9378 17.7645L26.9644 18.0324ZM26.9512 17.8984L26.9378 17.7645L21.4844 18.3098L21.4978 18.4438L21.5112 18.5777L26.9644 18.0324L26.9512 17.8984Z" fill="white"/>
<path d="M21.4974 18.4436L19.1797 14.6262H31.3135C31.0862 16.5349 30.6043 20.5704 30.4953 21.4429" stroke="white" stroke-width="0.269231" stroke-linecap="round"/>
<path d="M43.6057 36.643C44.7294 36.0712 45.4327 35.0637 45.2684 33.3856C45.0471 31.0923 43.0653 30.3231 40.5634 30.1042L40.5628 26.923H38.6244L38.6238 30.0205C38.1139 30.0205 37.5937 30.0304 37.0763 30.0409L37.0757 26.9235L35.1392 26.9232L35.1386 30.1037C34.7189 30.112 34.3067 30.1204 33.9042 30.1204V30.1109L31.2305 30.1099L31.2307 32.1776C31.2307 32.1776 32.6625 32.1506 32.6388 32.1767C33.4236 32.1773 33.6799 32.6328 33.7537 33.0259L33.7542 36.6497V41.7404C33.7198 41.987 33.5744 42.3811 33.0254 42.3819C33.0505 42.4037 31.6155 42.3817 31.6155 42.3817L31.2307 44.6938H33.7532C34.223 44.6944 34.685 44.7016 35.1378 44.7054L35.1394 47.9224L37.0757 47.923L37.0752 44.7396C37.608 44.7504 38.1222 44.7552 38.6244 44.7544L38.6238 47.923H40.5623L40.5634 44.7113C43.8219 44.5242 46.103 43.7041 46.3865 40.6467C46.6151 38.1854 45.4558 37.0867 43.6057 36.643ZM37.1226 32.317C38.2159 32.317 41.6543 31.9692 41.6548 34.2512C41.6543 36.4387 38.217 36.1832 37.1226 36.1832V32.317ZM37.1218 42.3976L37.1226 38.1348C38.4362 38.1346 42.5562 37.7571 42.5567 40.2652C42.5573 42.6703 38.4362 42.3965 37.1218 42.3976Z" fill="white"/>
</g>
<defs>
<clipPath id="clip0_543_2600">
<rect width="56" height="56" fill="white"/>
</clipPath>
</defs>
</svg>
