<svg width="140" height="76" viewBox="0 0 140 76" fill="none" xmlns="http://www.w3.org/2000/svg">
<path d="M11.3013 41.8208L15.3106 33.1582H15.3091L15.3138 33.1515L15.4804 32.7914H11.0875L9.85222 30.0771H20.3352L12.9971 45.9227H9.60542L2.26562 30.0771H5.86162L11.3013 41.8208Z" fill="white"/>
<path fill-rule="evenodd" clip-rule="evenodd" d="M36.7846 45.8989L36.7249 45.9227H33.2012L31.7419 42.7683H23.8661L22.4068 45.9227H18.8831L18.8234 45.8989L26.1428 30.0771H29.4653L36.7846 45.8989ZM25.1557 39.9806H30.4522L27.8039 34.2565L25.1557 39.9806Z" fill="white"/>
<path d="M43.5994 43.1351H51.6149V45.9227H39.9845V30.0771H43.5994V43.1351Z" fill="white"/>
<path d="M58.8447 36.6795H66.0744V30.0771H69.6893V45.9227H66.0744V39.4671H58.8447V45.9227H55.2298V30.0771H58.8447V36.6795Z" fill="white"/>
<path fill-rule="evenodd" clip-rule="evenodd" d="M90.3224 45.8989L90.2627 45.9227H86.739L85.2797 42.7683H77.4039L75.9446 45.9227H72.4209L72.3612 45.8989L79.6805 30.0771H83.003L90.3224 45.8989ZM78.6935 39.9806H83.9899L81.3417 34.2565L78.6935 39.9806Z" fill="white"/>
<path d="M96.5651 43.1351H104.581V45.9227H92.9502V30.0771H96.5651V43.1351Z" fill="white"/>
<path d="M111.339 43.1351H119.355V45.9227H107.724V30.0771H111.339V43.1351Z" fill="white"/>
<path fill-rule="evenodd" clip-rule="evenodd" d="M139.359 45.8989L139.299 45.9227H135.776L134.316 42.7683H126.44L124.981 45.9227H121.457L121.398 45.8989L128.717 30.0771H132.04L139.359 45.8989ZM127.73 39.9806H133.026L130.378 34.2565L127.73 39.9806Z" fill="white"/>
</svg>
