<svg width="140" height="16" viewBox="0 0 140 16" fill="none" xmlns="http://www.w3.org/2000/svg">
<path d="M9.8501 11.8208L13.8594 3.15823H13.8579L13.8626 3.1515L14.0292 2.79143H9.63629L8.40105 0.0771484H18.8841L11.546 15.9227H8.15425L0.814453 0.0771484H4.41045L9.8501 11.8208Z" fill="white"/>
<path fill-rule="evenodd" clip-rule="evenodd" d="M36.7851 15.899L36.7254 15.9228H33.2017L31.7424 12.7684H23.8666L22.4073 15.9228H18.8836L18.8239 15.899L26.1432 0.0772438H29.4657L36.7851 15.899ZM25.1562 9.98072H30.4526L27.8044 4.25656L25.1562 9.98072Z" fill="white"/>
<path d="M43.5998 13.1352H51.6154V15.9228H39.985V0.0772438H43.5998V13.1352Z" fill="white"/>
<path d="M58.8452 6.67956H66.0749V0.0772438H69.6898V15.9228H66.0749V9.46721H58.8452V15.9228H55.2303V0.0772438H58.8452V6.67956Z" fill="white"/>
<path fill-rule="evenodd" clip-rule="evenodd" d="M90.3229 15.899L90.2632 15.9228H86.7395L85.2801 12.7684H77.4044L75.9451 15.9228H72.4213L72.3616 15.899L79.681 0.0772438H83.0035L90.3229 15.899ZM78.694 9.98072H83.9904L81.3422 4.25656L78.694 9.98072Z" fill="white"/>
<path d="M96.5656 13.1352H104.581V15.9228H92.9507V0.0772438H96.5656V13.1352Z" fill="white"/>
<path d="M111.339 13.1352H119.355V15.9228H107.725V0.0772438H111.339V13.1352Z" fill="white"/>
<path fill-rule="evenodd" clip-rule="evenodd" d="M139.359 15.899L139.299 15.9228H135.776L134.316 12.7684H126.441L124.981 15.9228H121.458L121.398 15.899L128.717 0.0772438H132.04L139.359 15.899ZM127.73 9.98072H133.027L130.378 4.25656L127.73 9.98072Z" fill="white"/>
</svg>
